<?xml version="1.0" encoding="UTF-8" standalone="no"?>
<!DOCTYPE svg PUBLIC "-//W3C//DTD SVG 1.1//EN"
 "http://www.w3.org/Graphics/SVG/1.1/DTD/svg11.dtd">
<!-- Generated by graphviz version 2.47.0 (20210316.0004)
 -->
<!-- Title: dependencies Pages: 1 -->
<svg width="1054pt" height="284pt"
 viewBox="0.00 0.00 1054.00 284.00" xmlns="http://www.w3.org/2000/svg" xmlns:xlink="http://www.w3.org/1999/xlink">
<g id="graph0" class="graph" transform="scale(1 1) rotate(0) translate(4 280)">
<title>dependencies</title>
<polygon fill="white" stroke="transparent" points="-4,4 -4,-280 1050,-280 1050,4 -4,4"/>
<text text-anchor="start" x="502.01" y="-42.4" font-family="Times-12" font-weight="bold" font-size="14.00">Legend</text>
<polygon fill="#ffffb3" stroke="transparent" points="289,-10 289,-30 309,-30 309,-10 289,-10"/>
<text text-anchor="start" x="312.63" y="-15.4" font-family="Times-12" font-size="14.00"> &#160;Declarations</text>
<polygon fill="#8dd3c7" stroke="transparent" points="402,-10 402,-30 422,-30 422,-10 402,-10"/>
<text text-anchor="start" x="425.73" y="-15.4" font-family="Times-12" font-size="14.00"> &#160;Module</text>
<polygon fill="#80b1d3" stroke="transparent" points="488,-10 488,-30 508,-30 508,-10 488,-10"/>
<text text-anchor="start" x="511.78" y="-15.4" font-family="Times-12" font-size="14.00"> &#160;Bootstrap</text>
<polygon fill="#fdb462" stroke="transparent" points="585,-10 585,-30 605,-30 605,-10 585,-10"/>
<text text-anchor="start" x="608.67" y="-15.4" font-family="Times-12" font-size="14.00"> &#160;Providers</text>
<polygon fill="#fb8072" stroke="transparent" points="681,-10 681,-30 701,-30 701,-10 681,-10"/>
<text text-anchor="start" x="704.73" y="-15.4" font-family="Times-12" font-size="14.00"> &#160;Exports</text>
<g id="clust1" class="cluster">
<title>cluster_AppModule</title>
<polygon fill="none" stroke="black" stroke-dasharray="1,5" points="8,-70 8,-268 1038,-268 1038,-70 8,-70"/>
</g>
<g id="clust2" class="cluster">
<title>cluster_AppModule_declarations</title>
<polygon fill="none" stroke="black" points="168,-78 168,-130 1030,-130 1030,-78 168,-78"/>
</g>
<g id="clust8" class="cluster">
<title>cluster_AppModule_imports</title>
<polygon fill="none" stroke="black" points="16,-78 16,-130 160,-130 160,-78 16,-78"/>
</g>
<g id="clust10" class="cluster">
<title>cluster_AppModule_bootstrap</title>
<polygon fill="none" stroke="black" points="482,-208 482,-260 606,-260 606,-208 482,-208"/>
</g>
<!-- AddCandidateComponent -->
<g id="node1" class="node">
<title>AddCandidateComponent</title>
<polygon fill="#ffffb3" stroke="black" points="1022.2,-122 859.8,-122 859.8,-86 1022.2,-86 1022.2,-122"/>
<text text-anchor="middle" x="941" y="-99.8" font-family="Times,serif" font-size="14.00">AddCandidateComponent</text>
</g>
<!-- AppModule -->
<g id="node6" class="node">
<title>AppModule</title>
<polygon fill="#8dd3c7" stroke="black" points="585.66,-187 582.66,-191 561.66,-191 558.66,-187 502.34,-187 502.34,-151 585.66,-151 585.66,-187"/>
<text text-anchor="middle" x="544" y="-164.8" font-family="Times,serif" font-size="14.00">AppModule</text>
</g>
<!-- AddCandidateComponent&#45;&gt;AppModule -->
<g id="edge1" class="edge">
<title>AddCandidateComponent&#45;&gt;AppModule</title>
<path fill="none" stroke="black" d="M941,-122.28C941,-143.32 941,-175 941,-175 941,-175 595.74,-175 595.74,-175"/>
<polygon fill="black" stroke="black" points="595.74,-171.5 585.74,-175 595.74,-178.5 595.74,-171.5"/>
</g>
<!-- AppComponent -->
<g id="node2" class="node">
<title>AppComponent</title>
<polygon fill="#ffffb3" stroke="black" points="841.94,-122 736.06,-122 736.06,-86 841.94,-86 841.94,-122"/>
<text text-anchor="middle" x="789" y="-99.8" font-family="Times,serif" font-size="14.00">AppComponent</text>
</g>
<!-- AppComponent&#45;&gt;AppModule -->
<g id="edge2" class="edge">
<title>AppComponent&#45;&gt;AppModule</title>
<path fill="none" stroke="black" d="M789,-122.02C789,-139.37 789,-163 789,-163 789,-163 595.84,-163 595.84,-163"/>
<polygon fill="black" stroke="black" points="595.84,-159.5 585.84,-163 595.84,-166.5 595.84,-159.5"/>
</g>
<!-- ListCandidateComponent -->
<g id="node3" class="node">
<title>ListCandidateComponent</title>
<polygon fill="#ffffb3" stroke="black" points="717.87,-122 558.13,-122 558.13,-86 717.87,-86 717.87,-122"/>
<text text-anchor="middle" x="638" y="-99.8" font-family="Times,serif" font-size="14.00">ListCandidateComponent</text>
</g>
<!-- ListCandidateComponent&#45;&gt;AppModule -->
<g id="edge3" class="edge">
<title>ListCandidateComponent&#45;&gt;AppModule</title>
<path fill="none" stroke="black" d="M571.95,-122.11C571.95,-122.11 571.95,-140.99 571.95,-140.99"/>
<polygon fill="black" stroke="black" points="568.45,-140.99 571.95,-150.99 575.45,-140.99 568.45,-140.99"/>
</g>
<!-- UpdateCandidateComponent -->
<g id="node4" class="node">
<title>UpdateCandidateComponent</title>
<polygon fill="#ffffb3" stroke="black" points="540.02,-122 361.98,-122 361.98,-86 540.02,-86 540.02,-122"/>
<text text-anchor="middle" x="451" y="-99.8" font-family="Times,serif" font-size="14.00">UpdateCandidateComponent</text>
</g>
<!-- UpdateCandidateComponent&#45;&gt;AppModule -->
<g id="edge4" class="edge">
<title>UpdateCandidateComponent&#45;&gt;AppModule</title>
<path fill="none" stroke="black" d="M521.22,-122.11C521.22,-122.11 521.22,-140.99 521.22,-140.99"/>
<polygon fill="black" stroke="black" points="517.72,-140.99 521.22,-150.99 524.72,-140.99 517.72,-140.99"/>
</g>
<!-- ViewCandidateComponent -->
<g id="node5" class="node">
<title>ViewCandidateComponent</title>
<polygon fill="#ffffb3" stroke="black" points="344.41,-122 175.59,-122 175.59,-86 344.41,-86 344.41,-122"/>
<text text-anchor="middle" x="260" y="-99.8" font-family="Times,serif" font-size="14.00">ViewCandidateComponent</text>
</g>
<!-- ViewCandidateComponent&#45;&gt;AppModule -->
<g id="edge5" class="edge">
<title>ViewCandidateComponent&#45;&gt;AppModule</title>
<path fill="none" stroke="black" d="M260,-122.02C260,-139.37 260,-163 260,-163 260,-163 492.09,-163 492.09,-163"/>
<polygon fill="black" stroke="black" points="492.09,-166.5 502.09,-163 492.09,-159.5 492.09,-166.5"/>
</g>
<!-- AppComponent  -->
<g id="node8" class="node">
<title>AppComponent </title>
<polygon fill="#80b1d3" stroke="black" points="598.44,-252 489.56,-252 489.56,-216 598.44,-216 598.44,-252"/>
<text text-anchor="middle" x="544" y="-229.8" font-family="Times,serif" font-size="14.00">AppComponent </text>
</g>
<!-- AppModule&#45;&gt;AppComponent  -->
<g id="edge7" class="edge">
<title>AppModule&#45;&gt;AppComponent </title>
<path fill="none" stroke="black" stroke-dasharray="1,5" d="M544,-187.11C544,-187.11 544,-205.99 544,-205.99"/>
<polygon fill="black" stroke="black" points="540.5,-205.99 544,-215.99 547.5,-205.99 540.5,-205.99"/>
</g>
<!-- AppRoutingModule -->
<g id="node7" class="node">
<title>AppRoutingModule</title>
<polygon fill="#8dd3c7" stroke="black" points="152.27,-122 149.27,-126 128.27,-126 125.27,-122 23.73,-122 23.73,-86 152.27,-86 152.27,-122"/>
<text text-anchor="middle" x="88" y="-99.8" font-family="Times,serif" font-size="14.00">AppRoutingModule</text>
</g>
<!-- AppRoutingModule&#45;&gt;AppModule -->
<g id="edge6" class="edge">
<title>AppRoutingModule&#45;&gt;AppModule</title>
<path fill="none" stroke="black" d="M88,-122.28C88,-143.32 88,-175 88,-175 88,-175 492.32,-175 492.32,-175"/>
<polygon fill="black" stroke="black" points="492.32,-178.5 502.32,-175 492.32,-171.5 492.32,-178.5"/>
</g>
</g>
</svg>
