<?xml version="1.0" encoding="UTF-8" standalone="no"?>
<!DOCTYPE svg PUBLIC "-//W3C//DTD SVG 1.1//EN"
 "http://www.w3.org/Graphics/SVG/1.1/DTD/svg11.dtd">
<!-- Generated by graphviz version 2.47.0 (20210316.0004)
 -->
<!-- Title: dependencies Pages: 1 -->
<svg width="1198pt" height="284pt"
 viewBox="0.00 0.00 1198.00 284.00" xmlns="http://www.w3.org/2000/svg" xmlns:xlink="http://www.w3.org/1999/xlink">
<g id="graph0" class="graph" transform="scale(1 1) rotate(0) translate(4 280)">
<title>dependencies</title>
<polygon fill="white" stroke="transparent" points="-4,4 -4,-280 1194,-280 1194,4 -4,4"/>
<text text-anchor="start" x="574.01" y="-42.4" font-family="Times-12" font-weight="bold" font-size="14.00">Legend</text>
<polygon fill="#ffffb3" stroke="transparent" points="361,-10 361,-30 381,-30 381,-10 361,-10"/>
<text text-anchor="start" x="384.63" y="-15.4" font-family="Times-12" font-size="14.00"> &#160;Declarations</text>
<polygon fill="#8dd3c7" stroke="transparent" points="474,-10 474,-30 494,-30 494,-10 474,-10"/>
<text text-anchor="start" x="497.73" y="-15.4" font-family="Times-12" font-size="14.00"> &#160;Module</text>
<polygon fill="#80b1d3" stroke="transparent" points="560,-10 560,-30 580,-30 580,-10 560,-10"/>
<text text-anchor="start" x="583.78" y="-15.4" font-family="Times-12" font-size="14.00"> &#160;Bootstrap</text>
<polygon fill="#fdb462" stroke="transparent" points="657,-10 657,-30 677,-30 677,-10 657,-10"/>
<text text-anchor="start" x="680.67" y="-15.4" font-family="Times-12" font-size="14.00"> &#160;Providers</text>
<polygon fill="#fb8072" stroke="transparent" points="753,-10 753,-30 773,-30 773,-10 753,-10"/>
<text text-anchor="start" x="776.73" y="-15.4" font-family="Times-12" font-size="14.00"> &#160;Exports</text>
<g id="clust1" class="cluster">
<title>cluster_AppModule</title>
<polygon fill="none" stroke="black" stroke-dasharray="1,5" points="8,-70 8,-268 1038,-268 1038,-70 8,-70"/>
</g>
<g id="clust2" class="cluster">
<title>cluster_AppModule_declarations</title>
<polygon fill="none" stroke="black" points="168,-78 168,-130 1030,-130 1030,-78 168,-78"/>
</g>
<g id="clust8" class="cluster">
<title>cluster_AppModule_imports</title>
<polygon fill="none" stroke="black" points="16,-78 16,-130 160,-130 160,-78 16,-78"/>
</g>
<g id="clust10" class="cluster">
<title>cluster_AppModule_bootstrap</title>
<polygon fill="none" stroke="black" points="816,-208 816,-260 940,-260 940,-208 816,-208"/>
</g>
<g id="clust18" class="cluster">
<title>cluster_AppServerModule</title>
<polygon fill="none" stroke="black" stroke-dasharray="1,5" points="1046,-208 1046,-260 1182,-260 1182,-208 1046,-208"/>
</g>
<!-- AddCandidateComponent -->
<g id="node1" class="node">
<title>AddCandidateComponent</title>
<polygon fill="#ffffb3" stroke="black" points="1022.2,-122 859.8,-122 859.8,-86 1022.2,-86 1022.2,-122"/>
<text text-anchor="middle" x="941" y="-99.8" font-family="Times,serif" font-size="14.00">AddCandidateComponent</text>
</g>
<!-- AppModule -->
<g id="node6" class="node">
<title>AppModule</title>
<polygon fill="#8dd3c7" stroke="black" points="754.66,-187 751.66,-191 730.66,-191 727.66,-187 671.34,-187 671.34,-151 754.66,-151 754.66,-187"/>
<text text-anchor="middle" x="713" y="-164.8" font-family="Times,serif" font-size="14.00">AppModule</text>
</g>
<!-- AddCandidateComponent&#45;&gt;AppModule -->
<g id="edge1" class="edge">
<title>AddCandidateComponent&#45;&gt;AppModule</title>
<path fill="none" stroke="black" d="M896.18,-122.03C896.18,-138.4 896.18,-160 896.18,-160 896.18,-160 765.03,-160 765.03,-160"/>
<polygon fill="black" stroke="black" points="765.03,-156.5 755.03,-160 765.03,-163.5 765.03,-156.5"/>
</g>
<!-- AppComponent -->
<g id="node2" class="node">
<title>AppComponent</title>
<polygon fill="#ffffb3" stroke="black" points="841.94,-122 736.06,-122 736.06,-86 841.94,-86 841.94,-122"/>
<text text-anchor="middle" x="789" y="-99.8" font-family="Times,serif" font-size="14.00">AppComponent</text>
</g>
<!-- AppComponent&#45;&gt;AppModule -->
<g id="edge2" class="edge">
<title>AppComponent&#45;&gt;AppModule</title>
<path fill="none" stroke="black" d="M745.55,-122.11C745.55,-122.11 745.55,-140.99 745.55,-140.99"/>
<polygon fill="black" stroke="black" points="742.05,-140.99 745.55,-150.99 749.05,-140.99 742.05,-140.99"/>
</g>
<!-- ListCandidateComponent -->
<g id="node3" class="node">
<title>ListCandidateComponent</title>
<polygon fill="#ffffb3" stroke="black" points="717.87,-122 558.13,-122 558.13,-86 717.87,-86 717.87,-122"/>
<text text-anchor="middle" x="638" y="-99.8" font-family="Times,serif" font-size="14.00">ListCandidateComponent</text>
</g>
<!-- ListCandidateComponent&#45;&gt;AppModule -->
<g id="edge3" class="edge">
<title>ListCandidateComponent&#45;&gt;AppModule</title>
<path fill="none" stroke="black" d="M694.55,-122.11C694.55,-122.11 694.55,-140.99 694.55,-140.99"/>
<polygon fill="black" stroke="black" points="691.05,-140.99 694.55,-150.99 698.05,-140.99 691.05,-140.99"/>
</g>
<!-- UpdateCandidateComponent -->
<g id="node4" class="node">
<title>UpdateCandidateComponent</title>
<polygon fill="#ffffb3" stroke="black" points="540.02,-122 361.98,-122 361.98,-86 540.02,-86 540.02,-122"/>
<text text-anchor="middle" x="451" y="-99.8" font-family="Times,serif" font-size="14.00">UpdateCandidateComponent</text>
</g>
<!-- UpdateCandidateComponent&#45;&gt;AppModule -->
<g id="edge4" class="edge">
<title>UpdateCandidateComponent&#45;&gt;AppModule</title>
<path fill="none" stroke="black" d="M451,-122.03C451,-138.4 451,-160 451,-160 451,-160 661.2,-160 661.2,-160"/>
<polygon fill="black" stroke="black" points="661.2,-163.5 671.2,-160 661.2,-156.5 661.2,-163.5"/>
</g>
<!-- ViewCandidateComponent -->
<g id="node5" class="node">
<title>ViewCandidateComponent</title>
<polygon fill="#ffffb3" stroke="black" points="344.41,-122 175.59,-122 175.59,-86 344.41,-86 344.41,-122"/>
<text text-anchor="middle" x="260" y="-99.8" font-family="Times,serif" font-size="14.00">ViewCandidateComponent</text>
</g>
<!-- ViewCandidateComponent&#45;&gt;AppModule -->
<g id="edge5" class="edge">
<title>ViewCandidateComponent&#45;&gt;AppModule</title>
<path fill="none" stroke="black" d="M260,-122.11C260,-141.34 260,-169 260,-169 260,-169 661.19,-169 661.19,-169"/>
<polygon fill="black" stroke="black" points="661.19,-172.5 671.19,-169 661.19,-165.5 661.19,-172.5"/>
</g>
<!-- AppComponent  -->
<g id="node8" class="node">
<title>AppComponent </title>
<polygon fill="#80b1d3" stroke="black" points="932.44,-252 823.56,-252 823.56,-216 932.44,-216 932.44,-252"/>
<text text-anchor="middle" x="878" y="-229.8" font-family="Times,serif" font-size="14.00">AppComponent </text>
</g>
<!-- AppModule&#45;&gt;AppComponent  -->
<g id="edge7" class="edge">
<title>AppModule&#45;&gt;AppComponent </title>
<path fill="none" stroke="black" stroke-dasharray="1,5" d="M754.84,-178C789.34,-178 832.62,-178 832.62,-178 832.62,-178 832.62,-205.97 832.62,-205.97"/>
<polygon fill="black" stroke="black" points="829.13,-205.97 832.62,-215.97 836.13,-205.97 829.13,-205.97"/>
</g>
<!-- AppServerModule -->
<g id="node9" class="node">
<title>AppServerModule</title>
<polygon fill="#8dd3c7" stroke="black" points="1174.19,-252 1171.19,-256 1150.19,-256 1147.19,-252 1053.81,-252 1053.81,-216 1174.19,-216 1174.19,-252"/>
<text text-anchor="middle" x="1114" y="-229.8" font-family="Times,serif" font-size="14.00">AppServerModule</text>
</g>
<!-- AppModule&#45;&gt;AppServerModule -->
<g id="edge8" class="edge">
<title>AppModule&#45;&gt;AppServerModule</title>
<path fill="none" stroke="black" d="M754.78,-169C857.49,-169 1114,-169 1114,-169 1114,-169 1114,-205.89 1114,-205.89"/>
<polygon fill="black" stroke="black" points="1110.5,-205.89 1114,-215.89 1117.5,-205.89 1110.5,-205.89"/>
</g>
<!-- AppRoutingModule -->
<g id="node7" class="node">
<title>AppRoutingModule</title>
<polygon fill="#8dd3c7" stroke="black" points="152.27,-122 149.27,-126 128.27,-126 125.27,-122 23.73,-122 23.73,-86 152.27,-86 152.27,-122"/>
<text text-anchor="middle" x="88" y="-99.8" font-family="Times,serif" font-size="14.00">AppRoutingModule</text>
</g>
<!-- AppRoutingModule&#45;&gt;AppModule -->
<g id="edge6" class="edge">
<title>AppRoutingModule&#45;&gt;AppModule</title>
<path fill="none" stroke="black" d="M88,-122.29C88,-144.21 88,-178 88,-178 88,-178 661.02,-178 661.02,-178"/>
<polygon fill="black" stroke="black" points="661.02,-181.5 671.02,-178 661.02,-174.5 661.02,-181.5"/>
</g>
<!-- AppServerModule&#45;&gt;AppComponent  -->
<g id="edge9" class="edge">
<title>AppServerModule&#45;&gt;AppComponent </title>
<path fill="none" stroke="black" stroke-dasharray="1,5" d="M1053.84,-234C1053.84,-234 942.8,-234 942.8,-234"/>
<polygon fill="black" stroke="black" points="942.8,-230.5 932.8,-234 942.8,-237.5 942.8,-230.5"/>
</g>
</g>
</svg>
